<svg xmlns="http://www.w3.org/2000/svg" width="1200" height="110" viewBox="0 0 1200 110" role="img" aria-labelledby="title">
  <title id="title">Cloud Project Lab</title>
  <defs>
    <linearGradient id="lab" x1="0" y1="0" x2="1" y2="0">
      <stop offset="0" stop-color="#030712"/>
      <stop offset="0.48" stop-color="#0b2447"/>
      <stop offset="1" stop-color="#082f49"/>
    </linearGradient>
  </defs>
  <rect width="1200" height="110" rx="18" fill="url(#lab)" stroke="#146c94" stroke-width="2"/>
  <path d="M70 66h58c14 0 25-10 25-23 0-12-10-22-23-23-5-15-19-25-36-25-19 0-34 13-37 30-11 2-18 10-18 20 0 12 14 21 31 21Z" transform="translate(0 10)" fill="none" stroke="#38bdf8" stroke-width="3"/>
  <text x="600" y="51" text-anchor="middle" fill="#ffffff" font-family="Segoe UI, Inter, Arial, sans-serif" font-size="32" font-weight="800" letter-spacing="5">CLOUD PROJECT LAB</text>
  <text x="600" y="80" text-anchor="middle" fill="#ff9900" font-family="Consolas, Menlo, monospace" font-size="15" letter-spacing="3">ARCHITECT • AUTOMATE • DEPLOY • DOCUMENT</text>
  <g transform="translate(1060 27)" fill="none" stroke="#ff9900" stroke-width="3">
    <rect width="76" height="18" rx="4"/><rect y="27" width="76" height="18" rx="4"/><rect y="54" width="76" height="18" rx="4"/>
  </g>
</svg>
